<mxfile host="app.diagrams.net" modified="2024-07-23T06:36:19.960Z" agent="Mozilla/5.0 (Windows NT 10.0; Win64; x64) AppleWebKit/537.36 (KHTML, like Gecko) Chrome/126.0.0.0 Safari/537.36" etag="m5KO770-OOLjCxmcg-wq" version="24.7.3" type="github">
  <diagram name="หน้า-1" id="Qw0tFIXeSHWyljzNwAIm">
    <mxGraphModel dx="1384" dy="1794" grid="1" gridSize="10" guides="1" tooltips="1" connect="1" arrows="1" fold="1" page="1" pageScale="1" pageWidth="827" pageHeight="1169" math="0" shadow="0">
      <root>
        <mxCell id="0" />
        <mxCell id="1" parent="0" />
        <mxCell id="zm-q0sMNVzzizTku4tt9-1" value="อวิชชา" style="whiteSpace=wrap;html=1;aspect=fixed;fillColor=#fff2cc;strokeColor=#d6b656;" vertex="1" parent="1">
          <mxGeometry x="80" y="-1050" width="80" height="80" as="geometry" />
        </mxCell>
        <mxCell id="zm-q0sMNVzzizTku4tt9-2" value="สังขาร" style="whiteSpace=wrap;html=1;aspect=fixed;fillColor=#fff2cc;strokeColor=#d6b656;" vertex="1" parent="1">
          <mxGeometry x="180" y="-1050" width="80" height="80" as="geometry" />
        </mxCell>
        <mxCell id="zm-q0sMNVzzizTku4tt9-3" value="วิญญาณ" style="whiteSpace=wrap;html=1;aspect=fixed;fillColor=#fff2cc;strokeColor=#d6b656;" vertex="1" parent="1">
          <mxGeometry x="280" y="-1050" width="80" height="80" as="geometry" />
        </mxCell>
        <mxCell id="zm-q0sMNVzzizTku4tt9-4" value="นามรูป" style="whiteSpace=wrap;html=1;aspect=fixed;fillColor=#fff2cc;strokeColor=#d6b656;" vertex="1" parent="1">
          <mxGeometry x="380" y="-1050" width="80" height="80" as="geometry" />
        </mxCell>
        <mxCell id="zm-q0sMNVzzizTku4tt9-5" value="สฬายตนะ" style="whiteSpace=wrap;html=1;aspect=fixed;fillColor=#fff2cc;strokeColor=#d6b656;" vertex="1" parent="1">
          <mxGeometry x="470" y="-1050" width="80" height="80" as="geometry" />
        </mxCell>
        <mxCell id="zm-q0sMNVzzizTku4tt9-6" value="ผัสสะ" style="whiteSpace=wrap;html=1;aspect=fixed;fillColor=#fff2cc;strokeColor=#d6b656;" vertex="1" parent="1">
          <mxGeometry x="560" y="-1050" width="80" height="80" as="geometry" />
        </mxCell>
        <mxCell id="zm-q0sMNVzzizTku4tt9-7" value="เวทนา" style="whiteSpace=wrap;html=1;aspect=fixed;fillColor=#fff2cc;strokeColor=#d6b656;" vertex="1" parent="1">
          <mxGeometry x="650" y="-1050" width="80" height="80" as="geometry" />
        </mxCell>
        <mxCell id="zm-q0sMNVzzizTku4tt9-8" value="ตัณหา" style="whiteSpace=wrap;html=1;aspect=fixed;fillColor=#fff2cc;strokeColor=#d6b656;" vertex="1" parent="1">
          <mxGeometry x="750" y="-1050" width="80" height="80" as="geometry" />
        </mxCell>
        <mxCell id="zm-q0sMNVzzizTku4tt9-9" value="อุปาทาน" style="whiteSpace=wrap;html=1;aspect=fixed;fillColor=#fff2cc;strokeColor=#d6b656;" vertex="1" parent="1">
          <mxGeometry x="840" y="-1050" width="80" height="80" as="geometry" />
        </mxCell>
        <mxCell id="zm-q0sMNVzzizTku4tt9-10" value="ภพ" style="whiteSpace=wrap;html=1;aspect=fixed;fillColor=#fff2cc;strokeColor=#d6b656;" vertex="1" parent="1">
          <mxGeometry x="940" y="-1050" width="80" height="80" as="geometry" />
        </mxCell>
        <mxCell id="zm-q0sMNVzzizTku4tt9-11" value="ชาติ" style="whiteSpace=wrap;html=1;aspect=fixed;fillColor=#fff2cc;strokeColor=#d6b656;" vertex="1" parent="1">
          <mxGeometry x="1030" y="-1050" width="80" height="80" as="geometry" />
        </mxCell>
        <mxCell id="zm-q0sMNVzzizTku4tt9-12" value="ชรามรณะ" style="whiteSpace=wrap;html=1;aspect=fixed;fillColor=#fff2cc;strokeColor=#d6b656;" vertex="1" parent="1">
          <mxGeometry x="1130" y="-1050" width="80" height="80" as="geometry" />
        </mxCell>
      </root>
    </mxGraphModel>
  </diagram>
</mxfile>
